<svg width="77" height="77" viewBox="0 0 77 77" fill="none" xmlns="http://www.w3.org/2000/svg">
<path d="M20.3789 1.03149H56.0859C62.4942 1.03151 67.4381 2.84703 70.7852 6.19751C74.028 9.44392 75.8351 14.1945 75.9619 20.3157L75.9688 20.9114V56.6213C75.9687 63.0279 74.1516 67.9809 70.7998 71.3323C67.448 74.6835 62.4943 76.5002 56.0859 76.5002H20.3789C13.9705 76.5002 9.01787 74.6834 5.66699 71.3323C2.31613 67.9809 0.500028 63.028 0.5 56.6213V20.9104C0.5 14.5018 2.31614 9.54933 5.66699 6.19849C9.01784 2.84764 13.9703 1.03149 20.3789 1.03149ZM22.3291 28.3079C21.2512 27.7319 19.9614 27.7312 18.8857 28.3079L18.6602 28.4397C17.5377 29.1439 16.8891 30.3871 16.9219 31.6741L16.9346 31.884V58.3264L16.9365 58.3489C17.1097 60.2571 18.7085 61.6711 20.6045 61.6711C22.5049 61.6711 24.098 60.2566 24.2754 58.3499L24.2783 58.3264V31.884C24.388 30.6075 23.8117 29.3511 22.7744 28.5881L22.5576 28.4407L22.5566 28.4397L22.3291 28.3079ZM40.1709 15.7639C38.9888 15.1534 37.5984 15.1913 36.4785 15.8977C35.2895 16.6392 34.6344 17.995 34.748 19.3538V58.3333L34.752 58.3625C34.9762 60.2524 36.5571 61.6711 38.4219 61.6711C40.3222 61.671 41.9154 60.2565 42.0928 58.3499L42.0947 58.3264V19.3625C42.2436 18.0806 41.6731 16.8097 40.6289 16.0461L40.4111 15.8987L40.4053 15.8948L40.1709 15.7639ZM57.959 42.3196C56.8389 41.6117 55.447 41.5724 54.2666 42.1838L54.0332 42.3147L54.0273 42.3186C52.8451 43.0602 52.1813 44.3695 52.3398 45.7795V58.3264L52.3418 58.3499C52.5192 60.2566 54.1132 61.6711 56.0137 61.6711C57.8783 61.6709 59.4594 60.2523 59.6836 58.3625L59.6865 58.3333V45.7717C59.8001 44.3707 59.1429 43.0633 57.958 42.3196H57.959Z" fill="black" stroke="black"/>
</svg>
