<svg width="137" height="52" fill="none" xmlns="http://www.w3.org/2000/svg"><path d="M10.9.6h115.56c5.4 0 9.78 4.44 9.78 9.9V40.8c0 5.45-4.42 9.9-9.83 9.9H10.9a9.88 9.88 0 01-9.83-9.9V10.5C1.06 5.05 5.48.6 10.9.6z" stroke="#FEDC84"/><path fill-rule="evenodd" clip-rule="evenodd" d="M92.32 29.47v3.85c0 .9 1.72.85 1.82 0 .3-1.24.95-2.26 2.2-2.74v-1.1h-4.02zM61.34 42.42h7.74c.77 0 1.15-.2 1.15-.54 0-.25-.24-.45-.72-.5-.55-.1-.9-.1-.9-.74v-9.53c0-.57.5-.6.95-.75.43-.05.67-.2.67-.44 0-.66-1.12-.54-1.58-.54h-6.88v11.31c0 .6-.45.65-.91.74-.38.1-.58.25-.58.5-.04.34.34.5 1.06.5zM53.3 29.38c-.8 0-1.24.14-1.24.48 0 .19.24.38.72.57 1.05.34 1.58.92 1.58 1.79v6.11c0 .5-.14 2.22-.91 1.45a3.4 3.4 0 00-2.68-1.16c-1.07 0-3.1.4-3.1 1.83 0 1.55 2.3 1.97 3.43 1.97 2.43 0 5.12-.72 5.12-4.14v-6.11c0-1.18 1.04-1.78 2.1-1.78h2.16v-1.01H53.3zM42.5 18.69c-.58.33-.82.82-.82 1.3 0 .58.3 1 .96 1.4.62.38 1.39.57 2.3.57 1.57 0 2.82-.43 3.68-1.35l.43-.57-.86-1.02c-.1.39-.29.63-.58.63-.1 0-.19-.14-.33-.38a3.23 3.23 0 00-2.63-1.16c-.9.05-1.58.24-2.15.58zM15.67 29.23v1.06c.72 0 1.25.14 1.58.43.34.3.53.68.53 1.11v1.69c0 .62-.15 1-.48 1.3-.29.24-.86.38-1.63.38v1.06c1.44.1 2.1.63 2.1 1.54v1.97c0 .63-.18 1.06-.52 1.3-.33.25-.86.34-1.62.34v1.1c2.8 0 9.03.59 9.03-3.46 0-2.75-3.54-3.12-5.6-3.37 1.9-.32 5.32-.67 5.32-3.22 0-3.7-6.43-3.23-8.7-3.23zM27.63 35.88c0 4.69 4.75 6.6 8.75 6.6v-1.02c-.53-.1-.91-.24-1.1-.48-.2-.24-.29-.58-.29-1.06v-8.38c0-.67.48-1.1 1.43-1.3v-1c-3.99 0-8.8 1.95-8.8 6.64zM37.71 30.29c.96.2 1.39.63 1.39 1.3v8.38c0 .48-.1.86-.29 1.06-.19.24-.57.38-1.1.43v1.01c3.99 0 8.8-1.9 8.8-6.6 0-4.64-4.84-6.64-8.8-6.64v1.06zM72 35.88c0 4.69 4.76 6.6 8.75 6.6v-1.02c-.53-.1-.9-.24-1.1-.48-.2-.24-.29-.58-.29-1.06v-8.38c0-.67.48-1.1 1.44-1.3v-1c-4 0-8.8 1.95-8.8 6.64zM82.09 30.29c.95.2 1.38.63 1.38 1.3v8.38c0 .48-.1.86-.28 1.06-.2.24-.58.38-1.1.43v1.01c3.98 0 8.8-1.9 8.8-6.6 0-4.64-4.85-6.64-8.8-6.64v1.06z" fill="#FFDF89"/><path fill-rule="evenodd" clip-rule="evenodd" d="M111.2 35.88c0 4.69 4.77 6.6 8.76 6.6v-1.02c-.53-.1-.91-.24-1.1-.48-.2-.24-.29-.58-.29-1.06v-8.38c0-.67.48-1.1 1.44-1.3v-1c-4 0-8.8 1.95-8.8 6.64z" fill="#FFDC88"/><path fill-rule="evenodd" clip-rule="evenodd" d="M121.3 30.29c.95.2 1.38.63 1.38 1.3v8.38c0 .48-.1.86-.29 1.06-.19.24-.57.38-1.1.43v1.01c3.99 0 8.8-1.9 8.8-6.6 0-4.64-4.84-6.64-8.8-6.64v1.06zM8.26 30.1v3.08c0 1.17 1.67.51 1.91-.24.54-1.63 2.75-2.44 4.26-2.65v-1.01c-1.36.1-2.68.43-4.02.67-.33 0-.52-.23-.76-.43-.5-.5-1.39-.1-1.39.58zM14.43 42.52v-1.1c-.44 0-2.44.12-2.44-.44 0-.24.22-.24.29-.24 1.29-.2 1.91-.68 1.91-1.5 0-1.38-1.95-1.87-3.01-1.87-1.25 0-3.25.53-3.25 2.12 0 2.7 4.64 3.03 6.5 3.03zM41.97 8.96c-.76 0-1.15.15-1.15.48 0 .42 1.1.65 1.34 1.06l7.27 8.96 2.73-3.76-4.07-4.81c-.7-.72.91-.78.91-1.35 0-.34-.38-.53-1.15-.53l-5.88-.05zM97.1 42.23h7.94c.95 0 1.43-.2 1.43-.53 0-.24-.24-.43-.76-.48-.59-.1-1.15-.06-1.15-.77V29.47h-6.88v10.98c0 .69-.59.67-1.15.72-.53.05-.77.2-.77.48-.04.39.43.58 1.34.58zM80.37 21.86h7.36c.86 0 1.3-.19 1.3-.52 0-.3-.25-.44-.77-.49a3.32 3.32 0 01-.91-.19c-.1-.1-.15-.24-.15-.53V9.11h-6.88c-.72 0-1.1.19-1.1.53 0 .24.2.38.57.48.43.1.67.19.77.29.1.1.14.24.14.43v9.34c0 .24-.05.43-.14.48-.1.1-.34.15-.72.24-.38.1-.62.24-.62.48.05.3.43.48 1.15.48zM88.73 9.1H88.45v1.02c.62.1 1.05.24 1.29.43.24.2.38.53.38.96v2.99c0 .48-.14.82-.38 1.01-.24.2-.67.38-1.3.48V17c1.1 0 2.16-.05 3.07-.14 1.53-.2 2.77-.58 3.58-1.25a3.13 3.13 0 001.3-2.56 3 3 0 00-1.25-2.5 6.62 6.62 0 00-3.4-1.25c-.85-.15-1.86-.2-3-.2zM109.82 33.32v-3.85h-4.06v1.16c1.31.42 1.8 1.5 2.1 2.74.28.76 1.96.94 1.96-.05zM56.75 8.96h-3.59c-.96 0-1.39.2-1.39.53 0 .15.05.24.15.3.1.04.28.14.67.23.67.2.95.43.95.82 0 .29-.05.53-.24.72l-1.57 2.26.86 1.16 2.39-3.42.33-.48c.38-.53 1-.87 1.77-1.1.43-.15.67-.3.67-.49.05-.34-.29-.53-1-.53zM67.65 14.79v1.1c1.85.09 1.58 1.98 1.58 3.33 0 2.18 2.42 2.74 4.16 2.74 1.4 0 2.74-.25 3.82-1.2.38-.34.57-.63.57-.82 0-1.25-1.5-.05-2-.05-.2 0-.29-.1-.29-.29v-1.83c0-1.55-2.07-2.2-3.3-2.36-.72-.1-1.48-.14-2.3-.14 1.42-.55 1.73-1.88 1.73-3.27 0-.4.43-.82.76-.49a3 3 0 002.54 1.16c1.01 0 2.91-.46 2.91-1.78 0-1.48-2.08-1.98-3.2-1.98-1.58 0-2.77.39-3.54 1.16-.62.58-.9 1.25-.9 1.97 0 1.91-.7 2.55-2.54 2.75z" fill="#FFDF89"/><path fill-rule="evenodd" clip-rule="evenodd" d="M59.62 21.72h7.36c.86 0 1.29-.2 1.29-.53 0-.24-.24-.38-.72-.48-.48-.1-.76-.14-.9-.24-.1-.05-.15-.24-.15-.53v-9.3c0-.19.05-.33.2-.43.14-.1.37-.19.76-.28.38-.1.57-.25.57-.49 0-.33-.38-.53-1.1-.53h-7.31c-.72 0-1.1.2-1.1.53 0 .24.19.39.57.49.38.1.67.19.76.28.1.1.15.24.15.44v9.39c0 .24-.05.38-.15.48-.1.05-.33.14-.76.24-.38.1-.57.24-.57.48 0 .29.38.48 1.1.48z" fill="#FEDC84"/></svg>