<svg width="77" height="58" viewBox="0 0 77 58" fill="none" xmlns="http://www.w3.org/2000/svg">
<path d="M15.7256 0.833008H37.8711C42.3837 0.833008 46.1847 2.38592 48.8555 5.02246C51.5258 7.65865 53.0976 11.4083 53.0977 15.8594V42.1582C53.0976 46.6092 51.5257 50.359 48.8555 52.9951C46.1847 55.6316 42.3837 57.1846 37.8711 57.1846H15.7256C11.213 57.1845 7.41195 55.6318 4.74121 52.9951C2.07095 50.359 0.500091 46.6092 0.5 42.1582V15.8594C0.500058 11.4083 2.07097 7.65865 4.74121 5.02246C7.41195 2.38582 11.213 0.833084 15.7256 0.833008ZM68.8877 9.875C70.3139 9.14938 71.9693 9.17409 73.3682 9.93457L73.6445 10.0967C75.0984 11.009 75.9686 12.5946 75.9688 14.335V43.6846C75.9687 45.4284 75.0991 47.0093 73.6455 47.9219C72.848 48.4204 71.9611 48.6728 71.0703 48.6729C70.4206 48.6729 69.7691 48.5389 69.1484 48.2666L68.8848 48.1416L68.8828 48.1406L63.2197 45.2842H63.2207C61.2958 44.307 60.0997 42.3459 60.0996 40.1602V17.8555C60.0998 15.8025 61.1512 13.9517 62.8672 12.9297L63.2197 12.7363L68.8867 9.875H68.8877Z" fill="black" stroke="black"/>
</svg>
